<?xml version="1.0" encoding="UTF-8"?>
<svg id="Layer_2" data-name="Layer 2" xmlns="http://www.w3.org/2000/svg" viewBox="0 0 306.15 233.13">
  <defs>
    <style>
      .cls-1 {
        fill: none;
        stroke-linejoin: round;
      }

      .cls-1, .cls-2, .cls-3 {
        stroke: #161718;
        stroke-linecap: round;
      }

      .cls-1, .cls-3 {
        stroke-width: 1.23px;
      }

      .cls-2 {
        stroke-width: .62px;
      }

      .cls-2, .cls-3 {
        fill: #161718;
        stroke-miterlimit: 10;
      }
    </style>
  </defs>
  <path class="cls-1" d="M155.4,98.59c-7.23,11.92-21.9,13.58-33.58,9.95-7.06-2.19-16.79-7.9-19.77-9.51-42.92-23.26-56-16.77-67.79-.64-12.41,16.96,12.95,75.32,18.33,89.2,5.38,13.89,10.78,31.73,12.6,34.54,1.82,2.8,1.05,9.45,3.74,10.24,2.69.79,2.01-5.28,2.84-11.25.84-5.97,4.42-9.38,5.83-13.91s-6.35-4.21-9.27-5.94c-2.93-1.72,3.96-25.72,9.14-47.9,5.18-22.17-17.06-41.42-17.06-41.42"/>
  <path class="cls-1" d="M78.33,144.23s24.59,49.67,65.15,60.62c16.72,4.51,34.55.97,48.7-9.03,19.97-14.12,61.01-41.83,58.6-111.52"/>
  <path class="cls-1" d="M136.49,108.45s-10.45-39.47-39.39-46.54c-22.08-5.39-49.38,15.2-61.08,25.27-3.45,2.96-6.6,6.25-9.44,9.8C18.76,106.78,1.07,129.43.21,135.05c-1.11,7.23,2.3,4.3,6.85.15,4.55-4.15,19.77-.02,19.17-5.42-.6-5.4-5.13-6.81-3.03-8.41,2.1-1.6,7.83-4.63,7.83-4.63"/>
  <path class="cls-1" d="M86.01,89.12s7.44-6.02,9.58-15.37"/>
  <circle class="cls-3" cx="210.68" cy="33.48" r="4.54"/>
  <path class="cls-1" d="M158.83,12.85l.44-5.8-3.27-.65s-.92,3.3-3.31,4.04c-2.39.74-3.7.68-3.7.68l.12,1.07"/>
  <polyline class="cls-1" points="145.26 58.26 149.1 12.18 195.09 16.5 186.46 81.65 172.51 78.64"/>
  <path class="cls-1" d="M171.64,75.15c.34,1.15.63,2.31.86,3.49.13.67.25,1.34.35,2.01.84,5.72,2.73,18.66,2.91,21.78,1.17,20.31-.13,29.65,1.86,29.47,1.07-.1,10.93-14.99,16.94-22.81,2.62-3.4,5.58-6.53,8.86-9.3,6.51-5.5,13.63-10.01,19.86-5.32,35.91,26.99-11.57,63.01-11.57,63.01,0,0-26.27,17.83-47.82,12.18-21.55-5.65-7.85-74.67-7.85-74.67,1.16-9.46-1.06-10.42-1.06-10.42,0,0-4.56-2.83-6.77-4.55-2.21-1.72-.25-4.27-.25-4.27l4.99,1.86s-4.64-2.01-6.19-2.76c-1.55-.75.23-4.77.23-4.77l8.25,2.6s-7.71-2.95-9.38-3.59c-1.67-.64.12-3.22.51-4.26s2.26-.09,2.26-.09l8.24,2.59-8.72-3.65s-4.33-2.41-3.83-4.13c.5-1.72,2.66-2.99,3.61-2.55,0,0,13.87,5.23,16.9,6.31,3.02,1.08,6.79,11.85,6.79,11.85Z"/>
  <path class="cls-1" d="M213.22,1.62s-7.76,5.45-8.51,12.94c-.75,7.5-.28,8-1.5,9-.78.65-2.4,1.47-3.44,1.98-.51.24-.65.9-.29,1.33.41.49.92,1.04,1.27,1.21.69.33-.25,8.08-.26,9.66,0,1.57-.02,2.93,4.33,5.73,4.35,2.8,7.93,3.23,7.93,3.23"/>
  <path class="cls-1" d="M212.27,22.21s-1.42.87-4.69-.96"/>
  <path class="cls-1" d="M213.63,19.35s-3.68-3.05-6.38-3.02"/>
  <path class="cls-2" d="M277.86,33.26c-8.73-1.12-18.49-3.08-21.36-13-2.87-9.89-9.89-24.25-43.17-19.23-.19.03-.35.16-.43.33-.73,1.81-3.8,11.99,12.32,26.39.04.04.1.07.15.1,1.75.76,2.77-.89,4.38-.13,1.63.77,4.21,8.61-4.22,10.08-.02,0-.04,0-.06,0,0,0-12.13-4.17-11.32,14.08-4.86,4.35-16.16,6.01-10.74,21.19,5.42,15.18,17.74,8.41,17.74,8.41,0,0-3.35,19.14,8.91,24.95,12.25,5.81,23.96-8.55,23.96-8.55,0,0,11.71,30.52,33.51,17.51,22.47-13.41,6.15-35.16,6.15-35.16,0,0,36.71-40.24-15.81-46.97Z"/>
  <path class="cls-1" d="M188.33,70.95c6.94-5.99,9.09-6.77,17.61-11.47"/>
  <path class="cls-1" d="M173.24,83.27s1.66-1.86,4.27-3.61"/>
</svg>