<?xml version="1.0" encoding="UTF-8"?>
<svg id="Layer_1" data-name="Layer 1" xmlns="http://www.w3.org/2000/svg" viewBox="0 0 321.51 248.59">
  <defs>
    <style>
      .cls-3321 {
        fill: #fff;
      }
    </style>
  </defs>
  <path class="cls-3321" d="M163.63,108.01c-.06.09-.11.18-.17.27.1-.09.16-.18.17-.27Z"/>
  <path class="cls-3321" d="M181.1,90.04c.11.76.24,1.65.39,2.62,0,0,1.64-1.83,4.21-3.57l-4.94-1.07c.13.67.25,1.34.35,2.01Z"/>
  <path class="cls-3321" d="M0,0v248.59h321.51V0H0ZM295.77,124.78c-21.8,13.01-33.51-17.51-33.51-17.51,0,0-1.33,1.62-3.55,3.56-4.21,57.24-40.04,81.5-58.29,94.4-14.14,10-31.98,13.54-48.7,9.03-35.52-9.59-59.85-50.56-65.09-60.18-.74,2.27-.37,6.31-.93,8.72-5.18,22.17-12.07,46.17-9.14,47.9,2.93,1.72,10.68,1.41,9.27,5.94-1.41,4.53-4.99,7.94-5.83,13.91-.84,5.97-.16,12.04-2.84,11.25-2.69-.79-1.92-7.44-3.74-10.24-1.82-2.8-7.22-20.65-12.6-34.54-4.08-10.53-19.64-46.63-21.52-70.87h-.05s-5.73,3.03-7.83,4.63,2.43,3.01,3.03,8.41c.6,5.4-14.62,1.27-19.17,5.42-4.55,4.15-7.96,7.08-6.85-.15.86-5.62,18.55-28.26,26.37-38.06,2.84-3.55,5.99-6.83,9.44-9.8,11.7-10.07,36.18-30.82,61.08-25.27,24.55,5.47,35.09,35.94,39.55,47.58l11.53-4.04c7.5-6.34,7.86-10.46,7.86-10.46,1.16-9.46-1.06-10.42-1.06-10.42,0,0-4.56-2.83-6.77-4.55-2.21-1.72-.25-4.27-.25-4.27l4.99,1.86s-4.64-2.01-6.19-2.76c-1.55-.75.23-4.77.23-4.77l8.25,2.6s-7.71-2.95-9.38-3.59c-1.67-.64.12-3.22.51-4.26.4-1.04,2.26-.09,2.26-.09l8.24,2.59-8.72-3.65s-4.33-2.41-3.83-4.13c.16-.56.51-1.08.93-1.5l3.83-45.86c-.06-.56.33-1.06.88-1.13.63-.08,1.54-.25,2.7-.61,2.39-.74,3.31-4.04,3.31-4.04l3.27.65-.63,6.03,36.45,3.43-7.11,54.35c.5-.53.85-1.07,1.73-1.73,4.95-4.13,7.62-5.58,13.26-8.65,2.35-4.74,8.09-5.82,11.18-8.59-.07-1.5-.04-2.85.05-4.07l-3.1-1.49c-1.46-.41-3.73-1.23-6.27-2.87-4.35-2.8-4.34-4.16-4.33-5.73,0-1.57.95-9.33.26-9.66-.35-.17-.86-.72-1.27-1.21-.36-.43-.22-1.09.29-1.33,1.04-.5,2.66-1.33,3.44-1.98,1.21-1,.75-1.5,1.5-9,.63-6.29,6.18-11.13,7.96-12.53.08-.28.17-.51.23-.66.07-.18.23-.31.43-.33,33.28-5.02,40.31,9.35,43.17,19.23,2.87,9.92,12.63,11.88,21.36,13,52.53,6.73,15.81,46.97,15.81,46.97,0,0,16.32,21.75-6.15,35.16Z"/>
</svg>
