<svg xmlns="http://www.w3.org/2000/svg" data-name="Layer 1" viewBox="0 0 5.4 8.48">
    <path fill="currentColor" fill-rule="evenodd" d="M0 7.52V.96C0 .71.1.46.28.28A.97.97 0 0 1 .96 0h3.47a.952.952 0 0 1 .96.96v6.55a.952.952 0 0 1-.96.96H.96A.952.952 0 0 1 0 7.51ZM1.57.39h-.6a.583.583 0 0 0-.58.58v5.59h4.63V.96a.583.583 0 0 0-.58-.58h-.6l-.07.47c-.04.29-.28.5-.57.5h-.98c-.29 0-.53-.21-.57-.5L1.58.38Zm.74 7.32h.77c.11 0 .19-.09.19-.19s-.09-.19-.19-.19h-.77c-.11 0-.19.09-.19.19s.09.19.19.19Z"/>
</svg>
